<?xml version="1.0" encoding="utf-8"?>
<?xml-stylesheet type="text/xsl" href="rss1.xsl"?>
<rss version="2.0" xmlns:atom="http://www.w3.org/2005/Atom" xmlns:content="http://purl.org/rss/1.0/modules/content/" xmlns:dc="http://purl.org/dc/elements/1.1/" xmlns:media="http://search.yahoo.com/mrss/">
<channel>
 <title>Getty</title>
 <link>http://www.gettyimg.com/</link>
 <atom:link href="http://www.gettyimg.com/" rel="self" type="application/rss+xml" />

 
                <item>
                <title><![CDATA[【Albums (lossless)】FLAC - Anitta - Funk Generation | 16bit/44.1kHz]]></title>
                <link><![CDATA[https://sharemania.us/threads/anitta-funk-generation-16bit-44-1khz.243089/]]></link>
                <description><![CDATA[<article>
<blockquote class="messageText SelectQuoteContainer ugc baseHtml">
<img src="https://tinypic.host/images/2024/04/26/P849325537_Anull_video_gr698_sdr_2160x2160--4.gif" class="bbCodeImage LbImage" alt="[​IMG]" data-url="https://tinypic.host/images/2024/04/26/P849325537_Anull_video_gr698_sdr_2160x2160--4.gif" style=""><br>
<br>
<b>Artist: Anitta<br>
Album: Funk Generation (1673kbps)<br>
Release: 26/04/2024</b><br>
<br>
<b>Tracklist:</b><br>
<br>
<b>01. Lose Ya Breath<br>
02. Grip<br>
03. Funk Rave<br>
04. Fria<br>
05. Meme<br>
06. Love In Common<br>
07. Aceita<br>
08. Double Team (feat. Bad Gyal &amp; Brray)<br>
09. Savage Funk<br>
10. Joga Pra Lua (feat. Pedro Sampaio &amp; DENNIS)<br>
11. Cria De Favela<br>
12. Puta Cara<br>
13. Sabana<br>
14. Ahi (feat. Sam Smith)<br>
15. Mil Veces</b><br>
<br>
<div class="bbCodeBlock bbCodeVfcHH HiddenContent">
<div class="attribution type">Hidden Content:</div>
<blockquote>You must reply before you can see the hidden data contained here.</blockquote>
</div>
<div class="messageTextEndMarker">&nbsp;</div>
</blockquote>
</article>]]></description>
                <author><![CDATA[Kauan0606]]></author>
                </item>

                
                <item>
                <title><![CDATA[【HD Live Performances】WEB-DL - Taylor Swift The Eras Tour Taylors Version 2024 2160p DSNP WEB-DL DDP5.1 Atmos DV HDR HEVC-SiGLA]]></title>
                <link><![CDATA[https://sharemania.us/threads/taylor-swift-the-eras-tour-taylors-version-2024-2160p-dsnp-web-dl-ddp5-1-atmos-dv-hdr-hevc-sigla.243090/]]></link>
                <description><![CDATA[<article>
<blockquote class="messageText SelectQuoteContainer ugc baseHtml">
thanks
<div class="messageTextEndMarker">&nbsp;</div>
</blockquote>
</article>]]></description>
                <author><![CDATA[-C.A.A]]></author>
                </item>

                
                <item>
                <title><![CDATA[【Bugs!】우아! (woo!ah!) - BLUSH [Bugs!] [4K - H.264/AAC]]]></title>
                <link><![CDATA[https://sharemania.us/threads/%EC%9A%B0%EC%95%84-woo-ah-blush-bugs-4k-h-264-aac.243088/]]></link>
                <description><![CDATA[<article>
<blockquote class="messageText SelectQuoteContainer ugc baseHtml">
<div style="text-align: center"><img src="https://ptpimg.me/266v68.jpg" class="bbCodeImage LbImage" alt="[​IMG]" data-url="https://ptpimg.me/266v68.jpg" style=""><br>
<br>
<a href="https://ibb.co/nfCtp4r" target="_blank" class="externalLink" rel="nofollow"><img src="https://i.ibb.co/nfCtp4r/Taylor-Swift-The-Eras-Tour-Taylors-Version-2024-2160p-DSNP-WEB-DL-DDP5-1-Atmos-DV-HDR-HEVC-Si-GLA-mk.png" class="bbCodeImage LbImage" alt="[​IMG]" data-url="https://i.ibb.co/nfCtp4r/Taylor-Swift-The-Eras-Tour-Taylors-Version-2024-2160p-DSNP-WEB-DL-DDP5-1-Atmos-DV-HDR-HEVC-Si-GLA-mk.png"></a> <a href="https://ibb.co/xqZXz4W" target="_blank" class="externalLink" rel="nofollow"><img src="https://i.ibb.co/xqZXz4W/Taylor-Swift-The-Eras-Tour-Taylors-Version-2024-2160p-DSNP-WEB-DL-DDP5-1-Atmos-DV-HDR-HEVC-Si-GLA-mk.png" class="bbCodeImage LbImage" alt="[​IMG]" data-url="https://i.ibb.co/xqZXz4W/Taylor-Swift-The-Eras-Tour-Taylors-Version-2024-2160p-DSNP-WEB-DL-DDP5-1-Atmos-DV-HDR-HEVC-Si-GLA-mk.png"></a> <a href="https://ibb.co/xzpsRCb" target="_blank" class="externalLink" rel="nofollow"><img src="https://i.ibb.co/xzpsRCb/Taylor-Swift-The-Eras-Tour-Taylors-Version-2024-2160p-DSNP-WEB-DL-DDP5-1-Atmos-DV-HDR-HEVC-Si-GLA-mk.png" class="bbCodeImage LbImage" alt="[​IMG]" data-url="https://i.ibb.co/xzpsRCb/Taylor-Swift-The-Eras-Tour-Taylors-Version-2024-2160p-DSNP-WEB-DL-DDP5-1-Atmos-DV-HDR-HEVC-Si-GLA-mk.png"></a> <a href="https://ibb.co/Xs0PHsn" target="_blank" class="externalLink" rel="nofollow"><img src="https://i.ibb.co/Xs0PHsn/Taylor-Swift-The-Eras-Tour-Taylors-Version-2024-2160p-DSNP-WEB-DL-DDP5-1-Atmos-DV-HDR-HEVC-Si-GLA-mk.png" class="bbCodeImage LbImage" alt="[​IMG]" data-url="https://i.ibb.co/Xs0PHsn/Taylor-Swift-The-Eras-Tour-Taylors-Version-2024-2160p-DSNP-WEB-DL-DDP5-1-Atmos-DV-HDR-HEVC-Si-GLA-mk.png"></a> <a href="https://ibb.co/NZQzNHc" target="_blank" class="externalLink" rel="nofollow"><img src="https://i.ibb.co/NZQzNHc/Taylor-Swift-The-Eras-Tour-Taylors-Version-2024-2160p-DSNP-WEB-DL-DDP5-1-Atmos-DV-HDR-HEVC-Si-GLA-mk.png" class="bbCodeImage LbImage" alt="[​IMG]" data-url="https://i.ibb.co/NZQzNHc/Taylor-Swift-The-Eras-Tour-Taylors-Version-2024-2160p-DSNP-WEB-DL-DDP5-1-Atmos-DV-HDR-HEVC-Si-GLA-mk.png"></a> <a href="https://ibb.co/Hryvjq5" target="_blank" class="externalLink" rel="nofollow"><img src="https://i.ibb.co/Hryvjq5/Taylor-Swift-The-Eras-Tour-Taylors-Version-2024-2160p-DSNP-WEB-DL-DDP5-1-Atmos-DV-HDR-HEVC-Si-GLA-mk.png" class="bbCodeImage LbImage" alt="[​IMG]" data-url="https://i.ibb.co/Hryvjq5/Taylor-Swift-The-Eras-Tour-Taylors-Version-2024-2160p-DSNP-WEB-DL-DDP5-1-Atmos-DV-HDR-HEVC-Si-GLA-mk.png"></a> <a href="https://ibb.co/W0QRQNS" target="_blank" class="externalLink" rel="nofollow"><img src="https://i.ibb.co/W0QRQNS/Taylor-Swift-The-Eras-Tour-Taylors-Version-2024-2160p-DSNP-WEB-DL-DDP5-1-Atmos-DV-HDR-HEVC-Si-GLA-mk.png" class="bbCodeImage LbImage" alt="[​IMG]" data-url="https://i.ibb.co/W0QRQNS/Taylor-Swift-The-Eras-Tour-Taylors-Version-2024-2160p-DSNP-WEB-DL-DDP5-1-Atmos-DV-HDR-HEVC-Si-GLA-mk.png"></a> <a href="https://ibb.co/4JGhMbb" target="_blank" class="externalLink" rel="nofollow"><img src="https://i.ibb.co/4JGhMbb/Taylor-Swift-The-Eras-Tour-Taylors-Version-2024-2160p-DSNP-WEB-DL-DDP5-1-Atmos-DV-HDR-HEVC-Si-GLA-mk.png" class="bbCodeImage LbImage" alt="[​IMG]" data-url="https://i.ibb.co/4JGhMbb/Taylor-Swift-The-Eras-Tour-Taylors-Version-2024-2160p-DSNP-WEB-DL-DDP5-1-Atmos-DV-HDR-HEVC-Si-GLA-mk.png"></a> <a href="https://ibb.co/RjkXn8j" target="_blank" class="externalLink" rel="nofollow"><img src="https://i.ibb.co/RjkXn8j/Taylor-Swift-The-Eras-Tour-Taylors-Version-2024-2160p-DSNP-WEB-DL-DDP5-1-Atmos-DV-HDR-HEVC-Si-GLA-mk.png" class="bbCodeImage LbImage" alt="[​IMG]" data-url="https://i.ibb.co/RjkXn8j/Taylor-Swift-The-Eras-Tour-Taylors-Version-2024-2160p-DSNP-WEB-DL-DDP5-1-Atmos-DV-HDR-HEVC-Si-GLA-mk.png"></a> <a href="https://ibb.co/cL1tnwf" target="_blank" class="externalLink" rel="nofollow"><img src="https://i.ibb.co/cL1tnwf/Taylor-Swift-The-Eras-Tour-Taylors-Version-2024-2160p-DSNP-WEB-DL-DDP5-1-Atmos-DV-HDR-HEVC-Si-GLA-mk.png" class="bbCodeImage LbImage" alt="[​IMG]" data-url="https://i.ibb.co/cL1tnwf/Taylor-Swift-The-Eras-Tour-Taylors-Version-2024-2160p-DSNP-WEB-DL-DDP5-1-Atmos-DV-HDR-HEVC-Si-GLA-mk.png"></a> <a href="https://ibb.co/LCdS2MZ" target="_blank" class="externalLink" rel="nofollow"><img src="https://i.ibb.co/LCdS2MZ/Taylor-Swift-The-Eras-Tour-Taylors-Version-2024-2160p-DSNP-WEB-DL-DDP5-1-Atmos-DV-HDR-HEVC-Si-GLA-mk.png" class="bbCodeImage LbImage" alt="[​IMG]" data-url="https://i.ibb.co/LCdS2MZ/Taylor-Swift-The-Eras-Tour-Taylors-Version-2024-2160p-DSNP-WEB-DL-DDP5-1-Atmos-DV-HDR-HEVC-Si-GLA-mk.png"></a> <a href="https://ibb.co/Jvhnk5t" target="_blank" class="externalLink" rel="nofollow"><img src="https://i.ibb.co/Jvhnk5t/Taylor-Swift-The-Eras-Tour-Taylors-Version-2024-2160p-DSNP-WEB-DL-DDP5-1-Atmos-DV-HDR-HEVC-Si-GLA-mk.png" class="bbCodeImage LbImage" alt="[​IMG]" data-url="https://i.ibb.co/Jvhnk5t/Taylor-Swift-The-Eras-Tour-Taylors-Version-2024-2160p-DSNP-WEB-DL-DDP5-1-Atmos-DV-HDR-HEVC-Si-GLA-mk.png"></a> <a href="https://ibb.co/thGvcZH" target="_blank" class="externalLink" rel="nofollow"><img src="https://i.ibb.co/thGvcZH/Taylor-Swift-The-Eras-Tour-Taylors-Version-2024-2160p-DSNP-WEB-DL-DDP5-1-Atmos-DV-HDR-HEVC-Si-GLA-mk.png" class="bbCodeImage LbImage" alt="[​IMG]" data-url="https://i.ibb.co/thGvcZH/Taylor-Swift-The-Eras-Tour-Taylors-Version-2024-2160p-DSNP-WEB-DL-DDP5-1-Atmos-DV-HDR-HEVC-Si-GLA-mk.png"></a> <a href="https://ibb.co/j38JphR" target="_blank" class="externalLink" rel="nofollow"><img src="https://i.ibb.co/j38JphR/Taylor-Swift-The-Eras-Tour-Taylors-Version-2024-2160p-DSNP-WEB-DL-DDP5-1-Atmos-DV-HDR-HEVC-Si-GLA-mk.png" class="bbCodeImage LbImage" alt="[​IMG]" data-url="https://i.ibb.co/j38JphR/Taylor-Swift-The-Eras-Tour-Taylors-Version-2024-2160p-DSNP-WEB-DL-DDP5-1-Atmos-DV-HDR-HEVC-Si-GLA-mk.png"></a> <a href="https://ibb.co/GFMW1hs" target="_blank" class="externalLink" rel="nofollow"><img src="https://i.ibb.co/GFMW1hs/Taylor-Swift-The-Eras-Tour-Taylors-Version-2024-2160p-DSNP-WEB-DL-DDP5-1-Atmos-DV-HDR-HEVC-Si-GLA-mk.png" class="bbCodeImage LbImage" alt="[​IMG]" data-url="https://i.ibb.co/GFMW1hs/Taylor-Swift-The-Eras-Tour-Taylors-Version-2024-2160p-DSNP-WEB-DL-DDP5-1-Atmos-DV-HDR-HEVC-Si-GLA-mk.png"></a> <a href="https://ibb.co/YbBCpzN" target="_blank" class="externalLink" rel="nofollow"><img src="https://i.ibb.co/YbBCpzN/Taylor-Swift-The-Eras-Tour-Taylors-Version-2024-2160p-DSNP-WEB-DL-DDP5-1-Atmos-DV-HDR-HEVC-Si-GLA-mk.png" class="bbCodeImage LbImage" alt="[​IMG]" data-url="https://i.ibb.co/YbBCpzN/Taylor-Swift-The-Eras-Tour-Taylors-Version-2024-2160p-DSNP-WEB-DL-DDP5-1-Atmos-DV-HDR-HEVC-Si-GLA-mk.png"></a> <a href="https://ibb.co/3YSZMKS" target="_blank" class="externalLink" rel="nofollow"><img src="https://i.ibb.co/3YSZMKS/Taylor-Swift-The-Eras-Tour-Taylors-Version-2024-2160p-DSNP-WEB-DL-DDP5-1-Atmos-DV-HDR-HEVC-Si-GLA-mk.png" class="bbCodeImage LbImage" alt="[​IMG]" data-url="https://i.ibb.co/3YSZMKS/Taylor-Swift-The-Eras-Tour-Taylors-Version-2024-2160p-DSNP-WEB-DL-DDP5-1-Atmos-DV-HDR-HEVC-Si-GLA-mk.png"></a> <a href="https://ibb.co/0jCgSk1" target="_blank" class="externalLink" rel="nofollow"><img src="https://i.ibb.co/0jCgSk1/Taylor-Swift-The-Eras-Tour-Taylors-Version-2024-2160p-DSNP-WEB-DL-DDP5-1-Atmos-DV-HDR-HEVC-Si-GLA-mk.png" class="bbCodeImage LbImage" alt="[​IMG]" data-url="https://i.ibb.co/0jCgSk1/Taylor-Swift-The-Eras-Tour-Taylors-Version-2024-2160p-DSNP-WEB-DL-DDP5-1-Atmos-DV-HDR-HEVC-Si-GLA-mk.png"></a>​</div><br>
<b>Tracklist</b><br>
Miss Americana &amp; The Heartbreak Prince<br>
Cruel Summer<br>
The Man<br>
You Need to Calm Down<br>
Lover<br>
The Archer<br>
Fearless<br>
You Belong With Me<br>
Love Story<br>
willow<br>
marjorie<br>
champagne problems<br>
tolerate it<br>
...ready for it?<br>
delicate<br>
don't blame me<br>
look what you made me do<br>
Enchanted<br>
Long Live<br>
22<br>
We Are Never Ever Getting Back Together<br>
I Knew You Were Trouble<br>
All Too Well (10 Minute Version)<br>
the 1<br>
betty<br>
the last great american dynasty<br>
august<br>
illicit affairs<br>
my tear ricochet<br>
cardigan<br>
Style<br>
Blank Space<br>
Shake It Off<br>
Wildest Dream<br>
Bad Blood<br>
Our Song<br>
You're On Your Own, Kid<br>
Lavender Haze<br>
Midnight Rain<br>
Vigilante Shit<br>
Bejeweled<br>
Mastermind<br>
Karma<br>
<br>
Extra Performances - You Are In Love<br>
Extra Performances - Maroon<br>
Extra Performances - Death By A Thousand Cats<br>
Extra Performances - I Can See You<br>
<br>
<div style="text-align: left">
<div class="bbCodeBlock bbCodeCode">
<div class="type">Code:</div>
<pre>General
Unique ID                      : 313574581782992920139281325869563606724 (0xEBE8448708BB8E862A548D830BC376C4)
Complete name                  : C:\SiGLA\medusa\output\disneyplus\Taylor.Swift.The.Eras.Tour.Taylors.Version.2024.2160p.DSNP.WEB-DL.DDP5.1.Atmos.DV.HDR.HEVC-SiGLA.mkv
Format                         : Matroska
Format version                 : Version 4
File size                      : 25.5 GiB
Duration                       : 3 h 30 min
Overall bit rate               : 17.3 Mb/s
Frame rate                     : 24.000 FPS
Movie name                     : Taylor Swift The Eras Tour (Taylor's Version) (2024)
Writing application            : mkvmerge v82.0 ('SiGLA') 64-bit
Writing library                : libebml v1.4.5 + libmatroska v1.7.1
IMDB                           : tt28814949
TMDB                           : movie/1160164

Video
ID                             : 1
Format                         : HEVC
Format/Info                    : High Efficiency Video Coding
Format profile                 : Main 10@L5@High
HDR format                     : Dolby Vision, Version 1.0, Profile 5, dvhe.05.06, BL+RPU, no metadata compression
Codec ID                       : V_MPEGH/ISO/HEVC
Duration                       : 3 h 30 min
Bit rate                       : 16.6 Mb/s
Width                          : 3 840 pixels
Height                         : 2 160 pixels
Display aspect ratio           : 16:9
Frame rate mode                : Constant
Frame rate                     : 24.000 FPS
Color space                    : YUV
Chroma subsampling             : 4:2:0
Bit depth                      : 10 bits
Bits/(Pixel*Frame)             : 0.083
Stream size                    : 24.3 GiB (96%)
Language                       : English (US)
Default                        : Yes
Forced                         : No
Color range                    : Full

Audio
ID                             : 2
Format                         : E-AC-3 JOC
Format/Info                    : Enhanced AC-3 with Joint Object Coding
Commercial name                : Dolby Digital Plus with Dolby Atmos
Codec ID                       : A_EAC3
Duration                       : 3 h 30 min
Bit rate mode                  : Constant
Bit rate                       : 768 kb/s
Channel(s)                     : 6 channels
Channel layout                 : L R C LFE Ls Rs
Sampling rate                  : 48.0 kHz
Frame rate                     : 31.250 FPS (1536 SPF)
Compression mode               : Lossy
Stream size                    : 1.13 GiB (4%)
Language                       : English (US)
Service kind                   : Complete Main
Default                        : Yes
Forced                         : No
Complexity index               : 16
Number of dynamic objects      : 15
Bed channel count              : 1 channel
Bed channel configuration      : LFE

Text #1
ID                             : 3
Format                         : UTF-8
Codec ID                       : S_TEXT/UTF8
Codec ID/Info                  : UTF-8 Plain Text
Duration                       : 3 h 28 min
Bit rate                       : 60 b/s
Frame rate                     : 0.194 FPS
Count of elements              : 2428
Stream size                    : 92.7 KiB (0%)
Title                          : Brazilian
Language                       : Portuguese (BR)
Default                        : No
Forced                         : No

Text #2
ID                             : 4
Format                         : UTF-8
Codec ID                       : S_TEXT/UTF8
Codec ID/Info                  : UTF-8 Plain Text
Duration                       : 3 h 28 min
Bit rate                       : 4 b/s
Frame rate                     : 0.016 FPS
Count of elements              : 200
Stream size                    : 6.70 KiB (0%)
Language                       : Czech
Default                        : No
Forced                         : No

Text #3
ID                             : 5
Format                         : UTF-8
Codec ID                       : S_TEXT/UTF8
Codec ID/Info                  : UTF-8 Plain Text
Duration                       : 3 h 28 min
Bit rate                       : 4 b/s
Frame rate                     : 0.016 FPS
Count of elements              : 199
Stream size                    : 6.58 KiB (0%)
Language                       : Danish
Default                        : No
Forced                         : No

Text #4
ID                             : 6
Format                         : UTF-8
Codec ID                       : S_TEXT/UTF8
Codec ID/Info                  : UTF-8 Plain Text
Duration                       : 3 h 12 min
Bit rate                       : 4 b/s
Frame rate                     : 0.014 FPS
Count of elements              : 161
Stream size                    : 7.04 KiB (0%)
Language                       : German
Default                        : No
Forced                         : No

Text #5
ID                             : 7
Format                         : UTF-8
Codec ID                       : S_TEXT/UTF8
Codec ID/Info                  : UTF-8 Plain Text
Duration                       : 3 h 28 min
Bit rate                       : 8 b/s
Frame rate                     : 0.016 FPS
Count of elements              : 200
Stream size                    : 12.3 KiB (0%)
Language                       : Greek
Default                        : No
Forced                         : No

Text #6
ID                             : 8
Format                         : UTF-8
Codec ID                       : S_TEXT/UTF8
Codec ID/Info                  : UTF-8 Plain Text
Duration                       : 3 h 12 min
Bit rate                       : 5 b/s
Frame rate                     : 0.019 FPS
Count of elements              : 225
Stream size                    : 7.51 KiB (0%)
Language                       : English (US)
Default                        : No
Forced                         : No

Text #7
ID                             : 9
Format                         : UTF-8
Codec ID                       : S_TEXT/UTF8
Codec ID/Info                  : UTF-8 Plain Text
Duration                       : 3 h 30 min
Bit rate                       : 100 b/s
Frame rate                     : 0.268 FPS
Count of elements              : 3378
Stream size                    : 155 KiB (0%)
Title                          : SDH
Language                       : English (US)
Default                        : No
Forced                         : No

Text #8
ID                             : 10
Format                         : UTF-8
Codec ID                       : S_TEXT/UTF8
Codec ID/Info                  : UTF-8 Plain Text
Duration                       : 3 h 12 min
Bit rate                       : 5 b/s
Frame rate                     : 0.014 FPS
Count of elements              : 164
Stream size                    : 7.90 KiB (0%)
Title                          : Latin American
Language                       : Spanish (Latin America)
Default                        : No
Forced                         : No

Text #9
ID                             : 11
Format                         : UTF-8
Codec ID                       : S_TEXT/UTF8
Codec ID/Info                  : UTF-8 Plain Text
Duration                       : 3 h 28 min
Bit rate                       : 4 b/s
Frame rate                     : 0.016 FPS
Count of elements              : 200
Stream size                    : 6.80 KiB (0%)
Title                          : European
Language                       : Spanish (ES)
Default                        : No
Forced                         : No

Text #10
ID                             : 12
Format                         : UTF-8
Codec ID                       : S_TEXT/UTF8
Codec ID/Info                  : UTF-8 Plain Text
Duration                       : 3 h 28 min
Bit rate                       : 4 b/s
Frame rate                     : 0.016 FPS
Count of elements              : 200
Stream size                    : 6.24 KiB (0%)
Language                       : Finnish
Default                        : No
Forced                         : No

Text #11
ID                             : 13
Format                         : UTF-8
Codec ID                       : S_TEXT/UTF8
Codec ID/Info                  : UTF-8 Plain Text
Duration                       : 3 h 12 min
Bit rate                       : 5 b/s
Frame rate                     : 0.014 FPS
Count of elements              : 163
Stream size                    : 7.74 KiB (0%)
Title                          : Canadian
Language                       : French (CA)
Default                        : No
Forced                         : No

Text #12
ID                             : 14
Format                         : UTF-8
Codec ID                       : S_TEXT/UTF8
Codec ID/Info                  : UTF-8 Plain Text
Duration                       : 3 h 28 min
Bit rate                       : 4 b/s
Frame rate                     : 0.016 FPS
Count of elements              : 197
Stream size                    : 6.49 KiB (0%)
Language                       : French (FR)
Default                        : No
Forced                         : No

Text #13
ID                             : 15
Format                         : UTF-8
Codec ID                       : S_TEXT/UTF8
Codec ID/Info                  : UTF-8 Plain Text
Duration                       : 3 h 28 min
Bit rate                       : 4 b/s
Frame rate                     : 0.016 FPS
Count of elements              : 201
Stream size                    : 6.83 KiB (0%)
Language                       : Hungarian
Default                        : No
Forced                         : No

Text #14
ID                             : 16
Format                         : UTF-8
Codec ID                       : S_TEXT/UTF8
Codec ID/Info                  : UTF-8 Plain Text
Duration                       : 3 h 12 min
Bit rate                       : 4 b/s
Frame rate                     : 0.014 FPS
Count of elements              : 166
Stream size                    : 6.74 KiB (0%)
Language                       : Italian
Default                        : No
Forced                         : No

Text #15
ID                             : 17
Format                         : UTF-8
Codec ID                       : S_TEXT/UTF8
Codec ID/Info                  : UTF-8 Plain Text
Duration                       : 3 h 28 min
Bit rate                       : 3 b/s
Frame rate                     : 0.011 FPS
Count of elements              : 143
Stream size                    : 5.21 KiB (0%)
Language                       : Japanese
Default                        : No
Forced                         : No

Text #16
ID                             : 18
Format                         : UTF-8
Codec ID                       : S_TEXT/UTF8
Codec ID/Info                  : UTF-8 Plain Text
Duration                       : 3 h 29 min
Bit rate                       : 93 b/s
Frame rate                     : 0.237 FPS
Count of elements              : 2976
Stream size                    : 143 KiB (0%)
Language                       : Korean
Default                        : No
Forced                         : No

Text #17
ID                             : 19
Format                         : UTF-8
Codec ID                       : S_TEXT/UTF8
Codec ID/Info                  : UTF-8 Plain Text
Duration                       : 3 h 28 min
Bit rate                       : 4 b/s
Frame rate                     : 0.016 FPS
Count of elements              : 197
Stream size                    : 7.08 KiB (0%)
Language                       : Dutch
Default                        : No
Forced                         : No

Text #18
ID                             : 20
Format                         : UTF-8
Codec ID                       : S_TEXT/UTF8
Codec ID/Info                  : UTF-8 Plain Text
Duration                       : 3 h 28 min
Bit rate                       : 4 b/s
Frame rate                     : 0.016 FPS
Count of elements              : 200
Stream size                    : 6.81 KiB (0%)
Language                       : Norwegian
Default                        : No
Forced                         : No

Text #19
ID                             : 21
Format                         : UTF-8
Codec ID                       : S_TEXT/UTF8
Codec ID/Info                  : UTF-8 Plain Text
Duration                       : 3 h 28 min
Bit rate                       : 4 b/s
Frame rate                     : 0.016 FPS
Count of elements              : 201
Stream size                    : 6.24 KiB (0%)
Language                       : Polish
Default                        : No
Forced                         : No

Text #20
ID                             : 22
Format                         : UTF-8
Codec ID                       : S_TEXT/UTF8
Codec ID/Info                  : UTF-8 Plain Text
Duration                       : 3 h 28 min
Bit rate                       : 4 b/s
Frame rate                     : 0.016 FPS
Count of elements              : 200
Stream size                    : 6.63 KiB (0%)
Title                          : European
Language                       : Portuguese (PT)
Default                        : No
Forced                         : No

Text #21
ID                             : 23
Format                         : UTF-8
Codec ID                       : S_TEXT/UTF8
Codec ID/Info                  : UTF-8 Plain Text
Duration                       : 3 h 12 min
Bit rate                       : 5 b/s
Frame rate                     : 0.014 FPS
Count of elements              : 165
Stream size                    : 7.36 KiB (0%)
Language                       : Romanian
Default                        : No
Forced                         : No

Text #22
ID                             : 24
Format                         : UTF-8
Codec ID                       : S_TEXT/UTF8
Codec ID/Info                  : UTF-8 Plain Text
Duration                       : 3 h 28 min
Bit rate                       : 4 b/s
Frame rate                     : 0.016 FPS
Count of elements              : 201
Stream size                    : 7.23 KiB (0%)
Language                       : Slovak
Default                        : No
Forced                         : No

Text #23
ID                             : 25
Format                         : UTF-8
Codec ID                       : S_TEXT/UTF8
Codec ID/Info                  : UTF-8 Plain Text
Duration                       : 3 h 28 min
Bit rate                       : 3 b/s
Frame rate                     : 0.016 FPS
Count of elements              : 199
Stream size                    : 5.89 KiB (0%)
Language                       : Swedish
Default                        : No
Forced                         : No

Text #24
ID                             : 26
Format                         : UTF-8
Codec ID                       : S_TEXT/UTF8
Codec ID/Info                  : UTF-8 Plain Text
Duration                       : 3 h 28 min
Bit rate                       : 4 b/s
Frame rate                     : 0.016 FPS
Count of elements              : 201
Stream size                    : 7.02 KiB (0%)
Language                       : Turkish
Default                        : No
Forced                         : No

Text #25
ID                             : 27
Format                         : UTF-8
Codec ID                       : S_TEXT/UTF8
Codec ID/Info                  : UTF-8 Plain Text
Duration                       : 3 h 12 min
Bit rate                       : 3 b/s
Frame rate                     : 0.014 FPS
Count of elements              : 165
Stream size                    : 5.48 KiB (0%)
Title                          : Traditional
Language                       : Chinese (Traditional)
Default                        : No
Forced                         : No

Menu
00:54:42.000                   : en:Scene 1
02:23:27.208                   : en:Scene 2
02:58:45.250                   : en:Credits
03:04:10.667                   : en:Post-Credits Scene</pre>
</div></div>
<div class="bbCodeBlock bbCodeVfcHH HiddenContent">
<div class="attribution type">Hidden Content:</div>
<blockquote>You must either reply or click 'Like' to see the hidden information contained here.</blockquote>
</div>
<div class="messageTextEndMarker">&nbsp;</div>
</blockquote>
</article>]]></description>
                <author><![CDATA[hyung_z]]></author>
                </item>

                
                <item>
                <title><![CDATA[【Apple Music】WEB-RiP - Madison Beer - Make You Mine (iTunes M4V - 1080p HD)]]></title>
                <link><![CDATA[https://sharemania.us/threads/madison-beer-make-you-mine-itunes-m4v-1080p-hd.243087/]]></link>
                <description><![CDATA[<article>
<blockquote class="messageText SelectQuoteContainer ugc baseHtml">
<div style="text-align: center"><img src="https://i.imgur.com/Tnrse9N.png" class="bbCodeImage LbImage" alt="[​IMG]" data-url="https://i.imgur.com/Tnrse9N.png" style=""> <span style="font-size: 10px"><b>MD5 Checksum: B2FCB70C17A49C480CC92566A0862285</b><br>
I bought this. Also, don't forget to stream. Enjoy :&gt;</span> ​</div><br>
<div class="ToggleTriggerAnchor bbCodeSpoilerContainer">
<button type="button" class="button bbCodeSpoilerButton ToggleTrigger Tooltip JsOnly" data-target="> .SpoilerTarget"><span>Spoiler: <span class="SpoilerTitle">MediaInfo</span></span></button>
<div class="SpoilerTarget bbCodeSpoilerText">
<div class="bbCodeBlock bbCodeCode">
<div class="type">Code:</div>
<pre>Format                                   : MPEG-4
Format profile                           : Base Media / Version 2
Codec ID                                 : mp42 (mp42/mp41)
File size                                : 1.39 GiB
Duration                                 : 3 min 0 s
Overall bit rate mode                    : Variable
Overall bit rate                         : 66.3 Mb/s
Encoded date                             : UTC 2024-04-08 01:53:39
Tagged date                              : UTC 2024-04-08 01:54:26
TIM                                      : 00:00:00:00
TSC                                      : 24
TSZ                                      : 1

Video
ID                                       : 1
Format                                   : AVC
Format/Info                              : Advanced Video Codec
Format profile                           : High@L5.2
Format settings                          : CABAC / 4 Ref Frames
Format settings, CABAC                   : Yes
Format settings, Reference frames        : 4 frames
Codec ID                                 : avc1
Codec ID/Info                            : Advanced Video Coding
Duration                                 : 3 min 0 s
Bit rate                                 : 65.9 Mb/s
Width                                    : 3 840 pixels
Height                                   : 2 160 pixels
Display aspect ratio                     : 16:9
Frame rate mode                          : Constant
Frame rate                               : 24.000 FPS
Color space                              : YUV
Chroma subsampling                       : 4:2:0
Bit depth                                : 8 bits
Scan type                                : Progressive
Bits/(Pixel*Frame)                       : 0.331
Stream size                              : 1.38 GiB (100%)
Language                                 : English
Encoded date                             : UTC 2024-04-08 01:53:39
Tagged date                              : UTC 2024-04-08 01:53:39
Color range                              : Limited
Color primaries                          : BT.709
Transfer characteristics                 : BT.709
Matrix coefficients                      : BT.709
Codec configuration box                  : avcC

Audio
ID                                       : 2
Format                                   : AAC LC
Format/Info                              : Advanced Audio Codec Low Complexity
Codec ID                                 : mp4a-40-2
Duration                                 : 3 min 0 s
Source duration                          : 3 min 0 s
Bit rate mode                            : Variable
Bit rate                                 : 317 kb/s
Maximum bit rate                         : 375 kb/s
Channel(s)                               : 2 channels
Channel layout                           : L R
Sampling rate                            : 48.0 kHz
Frame rate                               : 46.875 FPS (1024 SPF)
Compression mode                         : Lossy
Stream size                              : 6.81 MiB (0%)
Source stream size                       : 6.81 MiB (0%)
Language                                 : English
Encoded date                             : UTC 2024-04-08 01:53:40
Tagged date                              : UTC 2024-04-08 01:53:40</pre>
</div></div>
</div>
<div class="ToggleTriggerAnchor bbCodeSpoilerContainer">
<button type="button" class="button bbCodeSpoilerButton ToggleTrigger Tooltip JsOnly" data-target="> .SpoilerTarget"><span>Spoiler: <span class="SpoilerTitle">FFPROBE</span></span></button>
<div class="SpoilerTarget bbCodeSpoilerText">
<div class="bbCodeBlock bbCodeCode">
<div class="type">Code:</div>
<pre>  Metadata:
    major_brand     : mp42
    minor_version   : 0
    compatible_brands: mp42mp41
    creation_time   : 2024-04-08T01:53:39.000000Z
  Duration: 00:03:00.07, start: 0.000000, bitrate: 66238 kb/s
  Stream #0:0[0x1](eng): Video: h264 (High) (avc1 / 0x31637661), yuv420p(tv, bt709, progressive), 3840x2160, 65927 kb/s, 24 fps, 24 tbr, 24k tbn (default)
    Metadata:
      creation_time   : 2024-04-08T01:53:39.000000Z
      handler_name    : ?Mainconcept Video Media Handler
      vendor_id       : [0][0][0][0]
      encoder         : AVC Coding
  Stream #0:1[0x2](eng): Audio: aac (LC) (mp4a / 0x6134706D), 48000 Hz, stereo, fltp, 317 kb/s (default)
    Metadata:
      creation_time   : 2024-04-08T01:53:40.000000Z
      handler_name    : #Mainconcept MP4 Sound Media Handler
      vendor_id       : [0][0][0][0]</pre>
</div></div>
</div><br>
<br>
<div style="text-align: center"><span data-s9e-mediaembed="youtube" style="display:inline-block;width:100%;max-width:640px"><span style="display:block;overflow:hidden;position:relative;padding-bottom:56.25%"><iframe allowfullscreen="" loading="lazy" scrolling="no" style="background:url(https://i.ytimg.com/vi/yh5W41ANcjo/hqdefault.jpg) 50% 50% / cover;border:0;height:100%;left:0;position:absolute;width:100%" src="https://www.youtube.com/embed/yh5W41ANcjo"></iframe></span></span><br>
<br>
<div class="bbCodeBlock bbCodeQuote">
<aside>
<blockquote class="quoteContainer"><div class="quote">hyung_z</div><div class="quoteExpand">Click to expand...</div></blockquote>
</aside>
</div>
<div class="bbCodeBlock bbCodeVfcHH HiddenContent">
<div class="attribution type">Hidden Content:</div>
<blockquote>You must either reply or click 'Like' to see the hidden information contained here.</blockquote>
</div></div>
<div class="messageTextEndMarker">&nbsp;</div>
</blockquote>
</article>]]></description>
                <author><![CDATA[sebastianswif13]]></author>
                </item>

                </channel></rss>